<svg width="50" height="50" viewBox="0 0 50 50" fill="none" xmlns="http://www.w3.org/2000/svg">
<rect width="50" height="50" rx="6" fill="url(#paint0_linear_1532_139151)"/>
<path d="M37.3794 16.4287C36.3289 16.4287 35.4746 17.283 35.4746 18.3335C35.4746 19.3839 36.3289 20.2382 37.3794 20.2382C38.4298 20.2382 39.2841 19.384 39.2841 18.3335C39.2841 17.283 38.4298 16.4287 37.3794 16.4287ZM37.3794 19.2859C36.8541 19.2859 36.427 18.8587 36.427 18.3335C36.427 17.8082 36.8541 17.3811 37.3794 17.3811C37.9046 17.3811 38.3318 17.8082 38.3318 18.3335C38.3317 18.8587 37.9046 19.2859 37.3794 19.2859Z" fill="white"/>
<path d="M12.6176 32.1426C11.5672 32.1426 10.7129 32.9969 10.7129 34.0474C10.7129 35.0978 11.5672 35.9521 12.6176 35.9521C13.6681 35.9521 14.5224 35.0978 14.5224 34.0474C14.5224 32.9969 13.6681 32.1426 12.6176 32.1426ZM12.6176 34.9998C12.0924 34.9998 11.6652 34.5727 11.6652 34.0474C11.6652 33.5221 12.0924 33.095 12.6176 33.095C13.1429 33.095 13.57 33.5221 13.57 34.0474C13.57 34.5727 13.1429 34.9998 12.6176 34.9998Z" fill="white"/>
<path d="M36.4553 17.03L32.3472 15.0466C32.11 14.9319 31.8257 15.0319 31.7115 15.2686C31.5972 15.5052 31.6967 15.79 31.9334 15.9043L36.0415 17.8876C36.1082 17.92 36.1786 17.9352 36.2481 17.9352C36.4252 17.9352 36.5953 17.8362 36.6771 17.6657C36.7914 17.429 36.6919 17.1442 36.4553 17.03Z" fill="white"/>
<path d="M32.143 35.4756C31.0925 35.4756 30.2383 36.3299 30.2383 37.3803C30.2383 38.4308 31.0925 39.2851 32.143 39.2851C33.1935 39.2851 34.0478 38.4308 34.0478 37.3804C34.0478 36.3299 33.1935 35.4756 32.143 35.4756ZM32.143 38.3327C31.6178 38.3327 31.1906 37.9056 31.1906 37.3803C31.1906 36.855 31.6178 36.428 32.143 36.428C32.6682 36.428 33.0954 36.8551 33.0954 37.3804C33.0954 37.9057 32.6682 38.3327 32.143 38.3327Z" fill="white"/>
<path d="M31.2209 36.0779L27.1128 34.0946C26.8756 33.9798 26.5914 34.0793 26.4771 34.3165C26.3628 34.5532 26.4623 34.8379 26.699 34.9522L30.8071 36.9355C30.8738 36.9679 30.9443 36.9831 31.0138 36.9831C31.1909 36.9831 31.3609 36.8841 31.4428 36.7136C31.5571 36.4769 31.4576 36.1922 31.2209 36.0779Z" fill="white"/>
<path d="M25.0004 23.5713C23.9499 23.5713 23.0957 24.4256 23.0957 25.476C23.0957 26.5265 23.95 27.3808 25.0004 27.3808C26.0509 27.3808 26.9052 26.5265 26.9052 25.476C26.9052 24.4256 26.0509 23.5713 25.0004 23.5713ZM25.0004 26.4284C24.4752 26.4284 24.048 26.0013 24.048 25.476C24.048 24.9508 24.4752 24.5236 25.0004 24.5236C25.5257 24.5236 25.9528 24.9508 25.9528 25.476C25.9528 26.0013 25.5257 26.4284 25.0004 26.4284Z" fill="white"/>
<path d="M24.1631 24.2262L21.0075 21.7667C20.7998 21.6062 20.5008 21.6419 20.3389 21.8496C20.1774 22.0572 20.2141 22.3562 20.4217 22.5181L23.5774 24.9777C23.6646 25.0453 23.7674 25.0782 23.8698 25.0782C24.0117 25.0782 24.1518 25.0153 24.246 24.8949C24.4075 24.6872 24.3708 24.3881 24.1631 24.2262Z" fill="white"/>
<path d="M33.5721 23.0947C30.684 23.0947 28.334 25.4447 28.334 28.3328C28.334 31.221 30.684 33.571 33.5721 33.571C36.4602 33.571 38.8102 31.221 38.8102 28.3328C38.8102 25.4447 36.4602 23.0947 33.5721 23.0947ZM33.5721 32.6185C31.2088 32.6185 29.2864 30.6961 29.2864 28.3328C29.2864 25.9694 31.2088 24.0471 33.5721 24.0471C35.9354 24.0471 37.8578 25.9694 37.8578 28.3328C37.8578 30.6961 35.9354 32.6185 33.5721 32.6185Z" fill="white"/>
<path d="M33.5708 25C32.5203 25 31.666 25.8543 31.666 26.9047C31.666 27.9552 32.5203 28.8095 33.5708 28.8095C34.6213 28.8095 35.4755 27.9552 35.4755 26.9047C35.4755 25.8543 34.6213 25 33.5708 25ZM33.5708 27.8571C33.0455 27.8571 32.6184 27.43 32.6184 26.9047C32.6184 26.3795 33.0455 25.9523 33.5708 25.9523C34.096 25.9523 34.5232 26.3795 34.5232 26.9047C34.5232 27.43 34.096 27.8571 33.5708 27.8571Z" fill="white"/>
<path d="M34.9515 29.7617H32.1886C31.3748 29.7617 30.7129 30.406 30.7129 31.1974V32.4526C30.7129 32.6226 30.8033 32.7797 30.9505 32.865C31.7486 33.3269 32.6543 33.5712 33.57 33.5712C34.4858 33.5712 35.3915 33.3269 36.1896 32.865C36.3367 32.7802 36.4272 32.6226 36.4272 32.4531V31.1979C36.4272 30.406 35.7653 29.7617 34.9515 29.7617ZM35.4748 32.1688C34.2896 32.7593 32.8505 32.7593 31.6652 32.1688V31.1979C31.6652 30.9312 31.9 30.7141 32.1886 30.7141H34.9514C35.24 30.7141 35.4747 30.9312 35.4747 31.1979V32.1688H35.4748Z" fill="white"/>
<path d="M22.1424 28.8091C19.2543 28.8091 16.9043 31.1591 16.9043 34.0472C16.9043 36.9353 19.2543 39.2852 22.1424 39.2852C25.0305 39.2852 27.3805 36.9352 27.3805 34.0471C27.3805 31.159 25.0305 28.8091 22.1424 28.8091ZM22.1424 38.3328C19.7791 38.3328 17.8567 36.4105 17.8567 34.0471C17.8567 31.6838 19.7791 29.7614 22.1424 29.7614C24.5057 29.7614 26.4281 31.6838 26.4281 34.0471C26.4281 36.4105 24.5057 38.3328 22.1424 38.3328Z" fill="white"/>
<path d="M22.143 30.7139C21.0925 30.7139 20.2383 31.5682 20.2383 32.6186C20.2383 33.6691 21.0926 34.5234 22.143 34.5234C23.1935 34.5234 24.0478 33.6691 24.0478 32.6186C24.0478 31.5682 23.1935 30.7139 22.143 30.7139ZM22.143 33.571C21.6178 33.571 21.1906 33.1439 21.1906 32.6186C21.1906 32.0934 21.6177 31.6662 22.143 31.6662C22.6682 31.6662 23.0954 32.0933 23.0954 32.6186C23.0954 33.1439 22.6682 33.571 22.143 33.571Z" fill="white"/>
<path d="M23.5257 35.4756H20.7628C19.9491 35.4756 19.2871 36.1199 19.2871 36.9113V38.1665C19.2871 38.3365 19.3776 38.4937 19.5247 38.5789C20.3228 39.0408 21.2285 39.2851 22.1443 39.2851C23.06 39.2851 23.9657 39.0408 24.7638 38.5789C24.9109 38.4942 25.0014 38.3366 25.0014 38.167V36.9118C25.0014 36.1199 24.3395 35.4756 23.5257 35.4756ZM24.049 37.8827C22.8637 38.4732 21.4247 38.4732 20.2395 37.8827V36.9118C20.2395 36.6451 20.4742 36.428 20.7628 36.428H23.5256C23.8142 36.428 24.0489 36.6451 24.0489 36.9118V37.8827H24.049Z" fill="white"/>
<path d="M15.951 16.9048C13.0629 16.9048 10.7129 19.2548 10.7129 22.1429C10.7129 25.031 13.0629 27.381 15.951 27.381C18.8391 27.381 21.1891 25.031 21.1891 22.1429C21.1891 19.2548 18.8391 16.9048 15.951 16.9048ZM15.951 26.4286C13.5877 26.4286 11.6653 24.5062 11.6653 22.1429C11.6653 19.7796 13.5877 17.8572 15.951 17.8572C18.3143 17.8572 20.2367 19.7796 20.2367 22.1429C20.2367 24.5062 18.3143 26.4286 15.951 26.4286Z" fill="white"/>
<path d="M15.9516 18.8096C14.9011 18.8096 14.0469 19.6639 14.0469 20.7143C14.0469 21.7648 14.9012 22.6191 15.9516 22.6191C17.0021 22.6191 17.8564 21.7648 17.8564 20.7143C17.8564 19.6639 17.0021 18.8096 15.9516 18.8096ZM15.9516 21.6667C15.4264 21.6667 14.9992 21.2396 14.9992 20.7143C14.9992 20.189 15.4263 19.7619 15.9516 19.7619C16.4768 19.7619 16.904 20.189 16.904 20.7143C16.904 21.2396 16.4768 21.6667 15.9516 21.6667Z" fill="white"/>
<path d="M17.3343 23.5713H14.5714C13.7576 23.5713 13.0957 24.2156 13.0957 25.007V26.2622C13.0957 26.4322 13.1862 26.5894 13.3333 26.6746C14.1314 27.1365 15.0371 27.3808 15.9528 27.3808C16.8686 27.3808 17.7743 27.1365 18.5724 26.6746C18.7195 26.5899 18.81 26.4322 18.81 26.2628V25.0075C18.81 24.2156 18.1481 23.5713 17.3343 23.5713ZM17.8576 25.9784C16.6724 26.5689 15.2333 26.5689 14.048 25.9784V25.0075C14.048 24.7408 14.2828 24.5237 14.5714 24.5237H17.3342C17.6228 24.5237 17.8575 24.7408 17.8575 25.0075V25.9784H17.8576Z" fill="white"/>
<path d="M27.3807 10.7139C24.4926 10.7139 22.1426 13.0639 22.1426 15.952C22.1426 18.8401 24.4926 21.1901 27.3807 21.1901C30.2688 21.1901 32.6188 18.8401 32.6188 15.952C32.6187 13.0639 30.2687 10.7139 27.3807 10.7139ZM27.3807 20.2377C25.0174 20.2377 23.095 18.3153 23.095 15.952C23.095 13.5886 25.0174 11.6663 27.3807 11.6663C29.744 11.6663 31.6664 13.5886 31.6664 15.952C31.6664 18.3153 29.744 20.2377 27.3807 20.2377Z" fill="white"/>
<path d="M27.3794 12.6187C26.3289 12.6187 25.4746 13.4729 25.4746 14.5234C25.4746 15.5738 26.3289 16.4281 27.3794 16.4281C28.4298 16.4281 29.2841 15.5739 29.2841 14.5235C29.2841 13.473 28.4298 12.6187 27.3794 12.6187ZM27.3794 15.4758C26.8541 15.4758 26.427 15.0487 26.427 14.5234C26.427 13.9982 26.8541 13.571 27.3794 13.571C27.9046 13.571 28.3318 13.9981 28.3318 14.5234C28.3317 15.0487 27.9046 15.4758 27.3794 15.4758Z" fill="white"/>
<path d="M28.764 17.3809H26.0011C25.1873 17.3809 24.5254 18.0252 24.5254 18.8166V20.0718C24.5254 20.2418 24.6158 20.3989 24.763 20.4842C25.5611 20.9461 26.4668 21.1904 27.3825 21.1904C28.2983 21.1904 29.204 20.9461 30.0021 20.4842C30.1492 20.3994 30.2397 20.2418 30.2397 20.0723V18.8171C30.2397 18.0251 29.5777 17.3809 28.764 17.3809ZM29.2873 19.788C28.1021 20.3785 26.663 20.3785 25.4777 19.788V18.8171C25.4777 18.5504 25.7125 18.3333 26.0011 18.3333H28.7639C29.0525 18.3333 29.2872 18.5504 29.2872 18.8171V19.788H29.2873Z" fill="white"/>
<path d="M22.98 15.6417C22.809 15.4427 22.5085 15.4189 22.3085 15.5899L19.0085 18.4137C18.8085 18.5846 18.7852 18.8851 18.9561 19.0851C19.0504 19.1951 19.1838 19.2518 19.318 19.2518C19.4276 19.2518 19.5376 19.2142 19.6276 19.137L22.9276 16.3132C23.1276 16.1423 23.1509 15.8417 22.98 15.6417Z" fill="white"/>
<path d="M33.474 23.2861L30.6169 19.4765C30.4593 19.2656 30.1607 19.2241 29.9502 19.3813C29.7397 19.5389 29.6974 19.8375 29.855 20.0475L32.7121 23.857C32.8059 23.9818 32.9488 24.0475 33.0935 24.0475C33.1926 24.0475 33.2931 24.0165 33.3788 23.9522C33.5893 23.7946 33.6317 23.4961 33.474 23.2861Z" fill="white"/>
<path d="M29.566 29.9077C29.4083 29.6973 29.1098 29.6549 28.8993 29.8125L26.2393 31.8072C26.0288 31.9649 25.9864 32.2634 26.144 32.4734C26.2378 32.5982 26.3807 32.6639 26.5254 32.6639C26.6249 32.6639 26.7249 32.6325 26.8107 32.5686L29.4707 30.5739C29.6812 30.4163 29.7236 30.1177 29.566 29.9077Z" fill="white"/>
<path d="M17.3799 33.5713H14.0465C13.7836 33.5713 13.5703 33.7841 13.5703 34.0475C13.5703 34.3108 13.7836 34.5236 14.0465 34.5236H17.3798C17.6426 34.5236 17.856 34.3108 17.856 34.0475C17.856 33.7841 17.6427 33.5713 17.3799 33.5713Z" fill="white"/>
<path d="M15.9517 10.7139C14.9012 10.7139 14.0469 11.5682 14.0469 12.6186C14.0469 13.6691 14.9012 14.5234 15.9516 14.5234C17.0021 14.5234 17.8564 13.6691 17.8564 12.6186C17.8564 11.5682 17.0021 10.7139 15.9517 10.7139ZM15.9517 13.571C15.4265 13.571 14.9993 13.1439 14.9993 12.6186C14.9993 12.0934 15.4264 11.6662 15.9517 11.6662C16.4769 11.6662 16.9041 12.0933 16.9041 12.6186C16.904 13.1439 16.4769 13.571 15.9517 13.571Z" fill="white"/>
<path d="M15.9508 13.5713C15.6879 13.5713 15.4746 13.7841 15.4746 14.0475V17.3808C15.4746 17.6441 15.6879 17.8569 15.9508 17.8569C16.2136 17.8569 16.427 17.6441 16.427 17.3808V14.0475C16.427 13.7841 16.2136 13.5713 15.9508 13.5713Z" fill="white"/>
<defs>
<linearGradient id="paint0_linear_1532_139151" x1="0" y1="25" x2="50" y2="25" gradientUnits="userSpaceOnUse">
<stop stop-color="#0C0C0E"/>
<stop offset="1" stop-color="#565656"/>
</linearGradient>
</defs>
</svg>
