<svg width="50" height="50" viewBox="0 0 50 50" fill="none" xmlns="http://www.w3.org/2000/svg">
<rect width="50" height="50" rx="6" fill="url(#paint0_linear_1532_139232)"/>
<path d="M35.2282 10.7139H28.7766C28.0144 10.7139 27.3941 11.3341 27.3941 12.0964V13.018C26.3775 13.018 25.5508 13.8447 25.5508 14.8613C25.5508 15.8779 26.3775 16.7047 27.3941 16.7047V19.0088H31.0807V18.0871C31.0807 17.5788 31.4941 17.1655 32.0024 17.1655C32.5107 17.1655 32.9241 17.5788 32.9241 18.0871V19.0088H35.2282C35.9904 19.0088 36.6107 18.3885 36.6107 17.6263V12.0964C36.6107 11.3341 35.9904 10.7139 35.2282 10.7139ZM35.689 17.6263C35.689 17.8802 35.4826 18.0871 35.2282 18.0871H33.8457C33.8457 17.0705 33.019 16.2438 32.0024 16.2438C30.9858 16.2438 30.1591 17.0705 30.1591 18.0871H28.3158V15.783H27.3941C26.8858 15.783 26.4724 15.3696 26.4724 14.8613C26.4724 14.353 26.8858 13.9397 27.3941 13.9397H28.3158V12.0964C28.3158 11.8424 28.5222 11.6355 28.7766 11.6355H35.2282C35.4826 11.6355 35.689 11.8424 35.689 12.0964V17.6263Z" fill="white"/>
<path d="M27.3952 19.9301C26.3786 19.9301 25.5519 20.7569 25.5519 21.7734H23.7086V19.4693H22.7869C22.2786 19.4693 21.8652 19.0559 21.8652 18.5476C21.8652 18.0393 22.2786 17.626 22.7869 17.626H23.7086V13.4785H22.4731C17.5643 13.4785 13.5703 17.4725 13.5703 22.3813C13.5703 25.0624 14.7606 27.5739 16.8358 29.2716L18.6394 30.7476V31.997C18.1044 32.1877 17.7178 32.6946 17.7178 33.2946C17.7178 33.932 18.1533 34.4647 18.7408 34.6237C18.6768 34.7827 18.6394 34.9555 18.6394 35.1375C18.6394 35.7467 19.0381 36.2592 19.586 36.443C19.7768 38.0412 21.1385 39.285 22.7869 39.285C24.4353 39.285 25.797 38.0412 25.9878 36.443C26.5358 36.2592 26.9344 35.7467 26.9344 35.1375C26.9344 34.9555 26.897 34.7827 26.833 34.6232C27.4205 34.4638 27.856 33.9315 27.856 33.2942C27.856 32.6942 27.4694 32.1873 26.9344 31.9965V30.7472L28.7381 29.2711C30.8132 27.5739 32.0035 25.0624 32.0035 22.3813V21.7734H29.2385C29.2385 20.7569 28.4118 19.9301 27.3952 19.9301ZM22.4731 14.4002H22.7869V16.7043C21.7703 16.7043 20.9436 17.5311 20.9436 18.5476C20.9436 19.5642 21.7703 20.391 22.7869 20.391V21.7734H20.9436C20.9436 20.7569 20.1169 19.9301 19.1003 19.9301C18.0837 19.9301 17.2569 20.7569 17.2569 21.7734H14.515C14.8265 17.6555 18.2768 14.4002 22.4731 14.4002ZM17.4192 28.5582C15.6399 27.1025 14.5864 24.9799 14.4984 22.6951H18.1786V21.7734C18.1786 21.2652 18.592 20.8518 19.1003 20.8518C19.6086 20.8518 20.0219 21.2652 20.0219 21.7734V22.6951H22.7869V24.5384C21.7703 24.5384 20.9436 25.3652 20.9436 26.3817C20.9436 27.3983 21.7703 28.2251 22.7869 28.2251V31.9117H19.5611V30.3108L17.4192 28.5582ZM22.7869 38.3633C21.6745 38.3633 20.7436 37.5702 20.5293 36.52H25.0445C24.8302 37.5702 23.8993 38.3633 22.7869 38.3633ZM25.5519 35.5983H20.0219C19.7675 35.5983 19.5611 35.3914 19.5611 35.1375C19.5611 34.8836 19.7675 34.6767 20.0219 34.6767H25.5519C25.8063 34.6767 26.0127 34.8836 26.0127 35.1375C26.0127 35.3914 25.8063 35.5983 25.5519 35.5983ZM26.4735 33.755H25.5519H20.0219H19.1003C18.8459 33.755 18.6394 33.5481 18.6394 33.2942C18.6394 33.0403 18.8459 32.8334 19.1003 32.8334H26.4735C26.7279 32.8334 26.9344 33.0403 26.9344 33.2942C26.9344 33.5481 26.7279 33.755 26.4735 33.755ZM28.1546 28.5582L26.0127 30.3108V31.9117H23.7086V27.3034H22.7869C22.2786 27.3034 21.8652 26.89 21.8652 26.3817C21.8652 25.8734 22.2786 25.4601 22.7869 25.4601H23.7086V22.6951H26.4735V21.7734C26.4735 21.2652 26.8869 20.8518 27.3952 20.8518C27.9035 20.8518 28.3169 21.2652 28.3169 21.7734V22.6951H31.0754C30.9874 24.9799 29.9339 27.1025 28.1546 28.5582Z" fill="white"/>
<defs>
<linearGradient id="paint0_linear_1532_139232" x1="0" y1="25" x2="50" y2="25" gradientUnits="userSpaceOnUse">
<stop stop-color="#1D3566"/>
<stop offset="1" stop-color="#0D40A9"/>
</linearGradient>
</defs>
</svg>
