<svg width="82" height="82" viewBox="0 0 82 82" fill="none" xmlns="http://www.w3.org/2000/svg">
<g filter="url(#filter0_d_1532_138995)">
<circle cx="41" cy="40" r="35" fill="white"/>
</g>
<path d="M41.0007 25C40.3635 25 39.7325 25.1293 39.1438 25.3804C38.5551 25.6315 38.0202 25.9996 37.5696 26.4636C37.1191 26.9276 36.7616 27.4785 36.5178 28.0848C36.2739 28.691 36.1484 29.3408 36.1484 29.997C36.1484 30.6533 36.2739 31.3031 36.5178 31.9093C36.7616 32.5156 37.1191 33.0665 37.5696 33.5305C38.0202 33.9945 38.5551 34.3626 39.1438 34.6137C39.7325 34.8648 40.3635 34.9941 41.0007 34.9941C42.2876 34.9941 43.5218 34.4676 44.4318 33.5305C45.3418 32.5934 45.853 31.3223 45.853 29.997C45.853 28.6717 45.3418 27.4007 44.4318 26.4636C43.5218 25.5265 42.2876 25 41.0007 25Z" fill="#1D3566"/>
<path d="M51.928 27.4956C50.9619 27.4956 50.0353 27.8909 49.3521 28.5944C48.669 29.298 48.2852 30.2522 48.2852 31.2471C48.2852 32.2421 48.669 33.1963 49.3521 33.8999C50.0353 34.6034 50.9619 34.9987 51.928 34.9987C52.8942 34.9987 53.8207 34.6034 54.5039 33.8999C55.1871 33.1963 55.5709 32.2421 55.5709 31.2471C55.5709 30.2522 55.1871 29.298 54.5039 28.5944C53.8207 27.8909 52.8942 27.4956 51.928 27.4956Z" fill="#1D3566"/>
<path d="M30.0706 27.4956C29.1044 27.4956 28.1779 27.8909 27.4947 28.5944C26.8115 29.298 26.4277 30.2522 26.4277 31.2471C26.4277 32.2421 26.8115 33.1963 27.4947 33.8999C28.1779 34.6034 29.1044 34.9987 30.0706 34.9987C31.0367 34.9987 31.9633 34.6034 32.6465 33.8999C33.3296 33.1963 33.7134 32.2421 33.7134 31.2471C33.7134 30.2522 33.3296 29.298 32.6465 28.5944C31.9633 27.8909 31.0367 27.4956 30.0706 27.4956Z" fill="#1D3566"/>
<path d="M33.7148 39.9835C33.7193 39.3232 33.9772 38.6916 34.4321 38.2263C34.8871 37.7611 35.5023 37.5 36.1434 37.5H45.8577C46.5018 37.5 47.1195 37.7635 47.575 38.2325C48.0304 38.7016 48.2863 39.3377 48.2863 40.001V47.5041C48.2861 48.2912 48.1665 49.0735 47.9317 49.8226C47.3939 51.52 46.2862 52.9644 44.8074 53.8965C43.3285 54.8285 41.5755 55.1871 39.8631 54.9078C38.1506 54.6286 36.591 53.7297 35.4641 52.3728C34.3372 51.0158 33.717 49.2896 33.7148 47.5041V40.001V39.9835Z" fill="#1D3566"/>
<path d="M31.2857 40.001C31.2857 39.0882 31.5213 38.2353 31.9366 37.5H26.4286C25.7845 37.5 25.1668 37.7635 24.7113 38.2325C24.2559 38.7016 24 39.3377 24 40.001V46.2536C23.9997 47.2773 24.2434 48.2854 24.7098 49.1894C25.1762 50.0934 25.851 50.8656 26.6749 51.4383C27.4989 52.011 28.4467 52.3666 29.4353 52.4738C30.4238 52.5811 31.4228 52.4367 32.3446 52.0535C31.6456 50.6443 31.2826 49.084 31.2857 47.5016V40.001Z" fill="#1D3566"/>
<path d="M50.7151 40.001V47.5041C50.7151 49.1423 50.3338 50.6879 49.6562 52.0535C50.578 52.4367 51.577 52.5811 52.5655 52.4738C53.5541 52.3666 54.502 52.011 55.3259 51.4383C56.1498 50.8656 56.8246 50.0934 57.291 49.1894C57.7574 48.2854 58.0011 47.2773 58.0008 46.2536V40.001C58.0008 39.3377 57.7449 38.7016 57.2895 38.2325C56.8341 37.7635 56.2163 37.5 55.5722 37.5H50.0643C50.4771 38.2353 50.7151 39.0882 50.7151 40.001Z" fill="#1D3566"/>
<defs>
<filter id="filter0_d_1532_138995" x="0" y="0" width="82" height="82" filterUnits="userSpaceOnUse" color-interpolation-filters="sRGB">
<feFlood flood-opacity="0" result="BackgroundImageFix"/>
<feColorMatrix in="SourceAlpha" type="matrix" values="0 0 0 0 0 0 0 0 0 0 0 0 0 0 0 0 0 0 127 0" result="hardAlpha"/>
<feMorphology radius="2" operator="dilate" in="SourceAlpha" result="effect1_dropShadow_1532_138995"/>
<feOffset dy="1"/>
<feGaussianBlur stdDeviation="2"/>
<feColorMatrix type="matrix" values="0 0 0 0 0.658333 0 0 0 0 0.658333 0 0 0 0 0.658333 0 0 0 0.25 0"/>
<feBlend mode="normal" in2="BackgroundImageFix" result="effect1_dropShadow_1532_138995"/>
<feBlend mode="normal" in="SourceGraphic" in2="effect1_dropShadow_1532_138995" result="shape"/>
</filter>
</defs>
</svg>
