<svg width="82" height="82" viewBox="0 0 82 82" fill="none" xmlns="http://www.w3.org/2000/svg">
<g filter="url(#filter0_d_1532_139052)">
<circle cx="41" cy="40" r="35" fill="white"/>
</g>
<path d="M30.1899 43.4519C30.4039 43.5951 30.6459 43.6635 30.8853 43.6635C31.2892 43.6635 31.6858 43.4684 31.9273 43.1075C33.9511 40.0833 37.3342 38.2779 40.977 38.2779C44.609 38.2779 47.9865 40.0751 50.0117 43.0854C50.3979 43.6593 51.1761 43.8116 51.7499 43.4254C52.3239 43.0393 52.4761 42.261 52.09 41.6872C50.4719 39.2821 48.152 37.5074 45.5009 36.5581C47.0908 35.2594 48.1076 33.2844 48.1076 31.0763C48.1076 27.1744 44.9332 24 41.0313 24C37.1294 24 33.955 27.1744 33.955 31.0763C33.955 33.2686 34.9571 35.2311 36.5273 36.5302C33.8348 37.476 31.48 39.2721 29.8456 41.7144C29.4609 42.2893 29.6151 43.0672 30.1899 43.4519ZM41.0313 26.5049C43.552 26.5049 45.6027 28.5556 45.6027 31.0763C45.6027 33.597 43.552 35.6477 41.0313 35.6477C38.5106 35.6477 36.4599 33.597 36.4599 31.0763C36.4599 28.5556 38.5106 26.5049 41.0313 26.5049ZM46.0259 46.1764L44.1588 47.5234C43.881 47.7238 43.7647 48.079 43.8709 48.4033L44.6228 50.5827C44.6545 50.6797 44.6667 50.7745 44.6627 50.865C44.636 51.4503 43.9024 51.8507 43.3644 51.4626L41.4973 50.1153C41.3584 50.0151 41.1949 49.965 41.0314 49.965C40.8679 49.965 40.7044 50.0151 40.5655 50.1153L38.6984 51.4626C38.1603 51.8507 37.4232 51.4503 37.3999 50.865C37.3963 50.7745 37.4089 50.6797 37.4406 50.5827L38.1918 48.4033C38.298 48.079 38.1817 47.7238 37.9039 47.5234L36.0367 46.1764C35.4155 45.7283 35.7348 44.6654 36.5027 44.6654H38.8105C39.154 44.6654 39.4583 44.5332 39.5644 44.2089L40.2775 42.0154C40.3962 41.6529 40.7138 41.4716 41.0314 41.4716C41.349 41.4716 41.6666 41.6529 41.7852 42.0154L42.4984 44.2089C42.6045 44.5332 42.9088 44.6654 43.2522 44.6654H45.5601C46.3279 44.6654 46.6472 45.7283 46.0259 46.1764ZM56.7344 50.56L54.8672 51.9069C54.5894 52.1073 54.4731 52.4626 54.5793 52.7868L55.3312 54.9662C55.3629 55.0633 55.3751 55.1581 55.3711 55.2485C55.3445 55.8339 54.6108 56.2343 54.0728 55.8461L52.2057 54.4988C52.0668 54.3986 51.9033 54.3485 51.7398 54.3485C51.5763 54.3485 51.4128 54.3986 51.2739 54.4988L49.4068 55.8461C48.8687 56.2343 48.1316 55.8339 48.1083 55.2485C48.1047 55.1581 48.1173 55.0632 48.149 54.9662L48.9002 52.7868C49.0064 52.4626 48.8901 52.1073 48.6123 51.9069L46.7452 50.56C46.1239 50.1119 46.4432 49.0489 47.2111 49.0489H49.5189C49.8624 49.0489 50.1667 48.9167 50.2728 48.5925L50.9859 46.399C51.1046 46.0365 51.4222 45.8552 51.7398 45.8552C52.0574 45.8552 52.375 46.0365 52.4936 46.399L53.2068 48.5925C53.3129 48.9167 53.6172 49.0489 53.9606 49.0489H56.2685C57.0363 49.0489 57.3556 50.1119 56.7344 50.56ZM35.3175 50.56L33.4504 51.9069C33.1726 52.1073 33.0563 52.4626 33.1624 52.7868L33.9143 54.9662C33.9461 55.0633 33.9583 55.1581 33.9542 55.2485C33.9276 55.8339 33.194 56.2343 32.656 55.8461L30.7888 54.4988C30.6499 54.3986 30.4864 54.3485 30.3229 54.3485C30.1594 54.3485 29.9959 54.3986 29.857 54.4988L27.9899 55.8461C27.4519 56.2343 26.7147 55.8339 26.6914 55.2485C26.6879 55.1581 26.7004 55.0632 26.7321 54.9662L27.4834 52.7868C27.5895 52.4626 27.4732 52.1073 27.1954 51.9069L25.3283 50.56C24.7071 50.1119 25.0263 49.0489 25.7942 49.0489H28.1021C28.4455 49.0489 28.7498 48.9167 28.8559 48.5925L29.569 46.399C29.6877 46.0365 30.0053 45.8552 30.3229 45.8552C30.6405 45.8552 30.9581 46.0365 31.0767 46.399L31.7899 48.5925C31.896 48.9167 32.2003 49.0489 32.5437 49.0489H34.8516C35.6195 49.0489 35.9387 50.1119 35.3175 50.56Z" fill="#1D3566"/>
<defs>
<filter id="filter0_d_1532_139052" x="0" y="0" width="82" height="82" filterUnits="userSpaceOnUse" color-interpolation-filters="sRGB">
<feFlood flood-opacity="0" result="BackgroundImageFix"/>
<feColorMatrix in="SourceAlpha" type="matrix" values="0 0 0 0 0 0 0 0 0 0 0 0 0 0 0 0 0 0 127 0" result="hardAlpha"/>
<feMorphology radius="2" operator="dilate" in="SourceAlpha" result="effect1_dropShadow_1532_139052"/>
<feOffset dy="1"/>
<feGaussianBlur stdDeviation="2"/>
<feColorMatrix type="matrix" values="0 0 0 0 0.658333 0 0 0 0 0.658333 0 0 0 0 0.658333 0 0 0 0.25 0"/>
<feBlend mode="normal" in2="BackgroundImageFix" result="effect1_dropShadow_1532_139052"/>
<feBlend mode="normal" in="SourceGraphic" in2="effect1_dropShadow_1532_139052" result="shape"/>
</filter>
</defs>
</svg>
