<svg width="50" height="50" viewBox="0 0 50 50" fill="none" xmlns="http://www.w3.org/2000/svg">
<rect width="50" height="50" rx="6" fill="url(#paint0_linear_1532_139087)"/>
<path d="M38.5569 21.5216L35.9597 21.2728C35.6841 20.1741 35.2391 19.1242 34.6409 18.1602L36.2965 16.1743C36.4591 15.9795 36.4456 15.6939 36.2656 15.5151L33.4563 12.7234C33.2764 12.5446 32.9889 12.5314 32.7928 12.6928L30.7928 14.3383C29.8209 13.7482 28.7655 13.3063 27.6616 13.0274L27.4111 10.4431C27.3867 10.1917 27.174 10 26.9198 10H23.0804C22.8262 10 22.6137 10.1917 22.5894 10.4431L22.3386 13.0274C21.2348 13.3061 20.1793 13.7482 19.2075 14.3383L17.2074 12.6923C17.0115 12.531 16.7241 12.5441 16.5439 12.7229L13.7346 15.5148C13.5547 15.6939 13.5412 15.9795 13.7038 16.1743L15.3589 18.16C14.7602 19.1239 14.315 20.1741 14.0391 21.2731L11.4433 21.522C11.1908 21.5465 10.9988 21.7578 11 22.0099V25.9673C10.9986 26.2191 11.1906 26.4307 11.443 26.4552L14.042 26.7041C14.3222 27.8007 14.7667 28.8497 15.3603 29.8153L13.7035 31.8024C13.5337 32.0061 13.5571 32.307 13.7565 32.4825L15.8874 34.3552C15.9927 34.4478 16.1329 34.4914 16.2729 34.4748C16.4126 34.4581 16.5386 34.3829 16.6191 34.2683L19.6816 29.902C19.8182 29.7071 19.7946 29.4429 19.6255 29.2748C16.6873 26.3553 16.687 21.6216 19.6255 18.7019C22.5639 15.7822 27.328 15.7822 30.2664 18.7019C33.2048 21.6216 33.2048 26.3553 30.2664 29.2748C30.0951 29.445 30.0734 29.7134 30.2151 29.9084L33.3853 34.2745C33.4667 34.3867 33.5922 34.4595 33.7307 34.4748C33.8692 34.4902 34.0078 34.4466 34.1121 34.3549L36.2437 32.483C36.4432 32.3077 36.4668 32.0066 36.2967 31.8027L34.6404 29.8153C35.2343 28.8497 35.679 27.8009 35.9594 26.7041L38.5569 26.4552C38.8094 26.4307 39.0014 26.2191 39 25.9673V22.0094C39.0012 21.7576 38.8094 21.546 38.5569 21.5216ZM38.0132 25.5218L35.5108 25.7617C35.2983 25.782 35.1234 25.9364 35.0779 26.1437C34.8059 27.3696 34.3113 28.5358 33.6187 29.5858C33.5002 29.7658 33.5137 30.0016 33.6517 30.167L35.2321 32.0626L33.8668 33.2619L31.2548 29.6645C34.2793 26.3494 34.1824 21.2063 30.9641 18.0084C27.6457 14.7112 22.2461 14.7112 18.9278 18.0084C15.7077 21.208 15.6125 26.3549 18.6416 29.6695L16.1262 33.2559L14.7679 32.0624L16.3481 30.1667C16.4861 30.0008 16.4994 29.7653 16.3808 29.5853C15.688 28.5356 15.1931 27.3693 14.9204 26.1437C14.8756 25.9367 14.7012 25.7823 14.4892 25.7617L11.9868 25.5218V22.4551L14.4892 22.215C14.7026 22.1945 14.878 22.0391 14.9226 21.8306C15.1881 20.6045 15.6827 19.439 16.3803 18.3938C16.5003 18.2136 16.4873 17.9766 16.3485 17.8102L14.7501 15.8926L16.9241 13.7322L18.854 15.3202C19.0208 15.4576 19.2581 15.4708 19.439 15.3528C20.4954 14.6643 21.6691 14.1726 22.9026 13.9019C23.1115 13.8559 23.2666 13.6817 23.2871 13.4703L23.5285 10.9807H26.4717L26.7134 13.4703C26.7339 13.6817 26.889 13.8559 27.0976 13.9019C28.3314 14.1726 29.5051 14.6645 30.5615 15.353C30.7424 15.471 30.9797 15.4578 31.1464 15.3204L33.0762 13.7324L35.2502 15.8926L33.6519 17.8102C33.5134 17.9766 33.5006 18.2136 33.6206 18.3936C34.3186 19.4387 34.8131 20.6045 35.0789 21.8306C35.1227 22.0389 35.2976 22.1945 35.5106 22.215L38.0132 22.4549V25.5218Z" fill="white"/>
<path d="M26.7202 32.6159V25.1719C27.9638 24.4583 28.7803 23.1037 28.7803 21.7076C28.7803 19.8 27.6824 18.4106 25.8435 17.9915C25.6903 17.9565 25.5299 17.996 25.4108 18.0978C25.2921 18.1997 25.229 18.3517 25.241 18.5073L25.4041 20.5878C24.9921 20.8025 24.5007 20.8027 24.0885 20.5883L24.2639 18.4963C24.2773 18.3355 24.2104 18.1784 24.0846 18.0762C23.9589 17.974 23.7907 17.9398 23.6348 17.9848C21.953 18.4688 20.9053 19.906 20.9053 21.7361C20.9053 23.4158 21.7923 24.7745 23.2725 25.3634V32.7786C22.224 33.3936 21.2139 34.6415 21.2298 36.2293C21.2298 38.1213 22.3153 39.52 24.1304 39.9713C24.2846 40.0096 24.4477 39.972 24.5691 39.8702C24.6905 39.7685 24.7553 39.6151 24.7433 39.4578L24.5809 37.3776C24.9926 37.1629 25.4843 37.1626 25.8965 37.3769L25.7211 39.469C25.7077 39.6299 25.7746 39.7869 25.9004 39.8892C26.0261 39.9914 26.1943 40.0256 26.3502 39.9806C28.0238 39.4987 29.0737 38.0687 29.0906 36.2432C29.0908 34.5632 28.1922 33.2047 26.7202 32.6159ZM26.773 38.7349L26.9043 37.1672C26.9182 37.0003 26.8457 36.838 26.7118 36.7365L26.6932 36.7224C25.8245 36.0672 24.6209 36.0751 23.7611 36.7416C23.6319 36.8428 23.5621 37.0015 23.5748 37.1645L23.7008 38.7772C22.7509 38.3069 22.2197 37.4082 22.2197 36.2245C22.2069 34.9347 23.121 33.9181 23.9784 33.5188C24.1511 33.4379 24.2607 33.2646 24.2595 33.0747V25.0161C24.2607 24.8004 24.1193 24.6096 23.9116 24.5466C22.6659 24.173 21.8937 23.096 21.8937 21.7356C21.8937 20.64 22.3842 19.7342 23.2113 19.23L23.0805 20.7977C23.0665 20.9648 23.1393 21.1273 23.2737 21.2286L23.292 21.2425C24.1595 21.8974 25.3619 21.8905 26.2215 21.2257C26.2259 21.2224 26.2307 21.2185 26.2348 21.2152C26.3576 21.1135 26.4232 20.9588 26.4109 20.8003L26.2832 19.1704C27.2522 19.6216 27.794 20.5162 27.794 21.7078C27.794 22.8186 27.0628 23.9393 26.0158 24.4334C25.8438 24.5146 25.7342 24.6869 25.7342 24.8763V32.963C25.7342 33.1791 25.8768 33.3697 26.0849 33.4321C27.3309 33.8061 28.1045 34.883 28.1045 36.2389C28.0939 37.3297 27.5993 38.2324 26.7732 38.7349H26.773Z" fill="white"/>
<defs>
<linearGradient id="paint0_linear_1532_139087" x1="0" y1="25" x2="50" y2="25" gradientUnits="userSpaceOnUse">
<stop stop-color="#1476BF"/>
<stop offset="1" stop-color="#0099FF"/>
</linearGradient>
</defs>
</svg>
