<svg width="50" height="50" viewBox="0 0 50 50" fill="none" xmlns="http://www.w3.org/2000/svg">
<rect width="50" height="50" rx="6" fill="url(#paint0_linear_1532_139095)"/>
<path d="M25.157 22.6954C27.9519 22.6954 30.2261 20.4212 30.2261 17.6263C30.2261 14.8313 27.9519 12.5571 25.157 12.5571C22.3621 12.5571 20.0879 14.8313 20.0879 17.6263C20.0879 20.4212 22.3621 22.6954 25.157 22.6954ZM25.157 13.4788C27.4441 13.4788 29.3045 15.3392 29.3045 17.6263C29.3045 19.9133 27.4441 21.7737 25.157 21.7737C22.8699 21.7737 21.0095 19.9133 21.0095 17.6263C21.0095 15.3392 22.8699 13.4788 25.157 13.4788Z" fill="white"/>
<path d="M23.7747 20.5819L28.248 16.1086L27.5964 15.457L23.7747 19.2787L22.718 18.222L22.0664 18.8736L23.7747 20.5819Z" fill="white"/>
<path d="M37.4507 33.7553H34.6857L32.8424 29.147H24.5475H23.7746H17.4719L15.6286 33.7553H12.3719L10.7129 39.2853H19.8682H21.1677H26.5396H31.3677H39.6627L37.4507 33.7553ZM32.2184 30.0687L33.6931 33.7553H29.1553H28.3829H26.3908L24.9161 30.0687H32.2184ZM18.0958 30.0687H23.7746H23.9235L25.3981 33.7553H22.0802H21.9313H19.5092H16.6207L18.0958 30.0687ZM11.9516 38.3636L13.0576 34.677H15.2599H18.823L19.929 38.3636H11.9516ZM20.611 37.4286L19.7857 34.677H21.7115L20.611 37.4286ZM26.5396 38.3636H21.2295L22.7041 34.677H26.7594H28.3829H28.5318L30.0064 38.3636H26.5396ZM30.9991 38.3636L29.5244 34.677H35.0544H36.8272L38.3018 38.3636H30.9991Z" fill="white"/>
<path d="M22.4022 23.9627L21.8432 28.4328L25.1566 27.3286L28.4695 28.4328L27.9105 23.9627C30.3552 22.8964 32.069 20.459 32.069 17.6263C32.069 13.8148 28.9681 10.7139 25.1566 10.7139C21.3451 10.7139 18.2441 13.8148 18.2441 17.6263C18.2441 20.459 19.958 22.8964 22.4022 23.9627ZM27.3736 27.0964L25.6174 26.5111V25.4604H24.6958V26.5111L22.9395 27.0964L23.2916 24.2761C23.8861 24.4429 24.5096 24.5388 25.1566 24.5388C25.8036 24.5388 26.4271 24.4429 27.0211 24.2761L27.3736 27.0964ZM25.1566 11.6355C28.4598 11.6355 31.1474 14.3231 31.1474 17.6263C31.1474 20.9295 28.4598 23.6171 25.1566 23.6171C21.8534 23.6171 19.1658 20.9295 19.1658 17.6263C19.1658 14.3231 21.8534 11.6355 25.1566 11.6355Z" fill="white"/>
<path d="M35.2949 18.5479H36.2166V19.4695H35.2949V18.5479Z" fill="white"/>
<path d="M35.2949 20.3916H36.2166V21.3133H35.2949V20.3916Z" fill="white"/>
<path d="M36.2168 19.4697H37.1385V20.3914H36.2168V19.4697Z" fill="white"/>
<path d="M34.373 19.4697H35.2947V20.3914H34.373V19.4697Z" fill="white"/>
<path d="M37.5996 23.6172H38.5213V24.5388H37.5996V23.6172Z" fill="white"/>
<path d="M37.5996 25.4604H38.5213V26.3821H37.5996V25.4604Z" fill="white"/>
<path d="M38.5215 24.5386H39.4431V25.4602H38.5215V24.5386Z" fill="white"/>
<path d="M36.6777 24.5386H37.5994V25.4602H36.6777V24.5386Z" fill="white"/>
<path d="M33.9141 25.9209H34.8357V26.8426H33.9141V25.9209Z" fill="white"/>
<path d="M33.9141 27.7646H34.8357V28.6863H33.9141V27.7646Z" fill="white"/>
<path d="M34.834 26.8428H35.7556V27.7645H34.834V26.8428Z" fill="white"/>
<path d="M32.9902 26.8428H33.9119V27.7644H32.9902V26.8428Z" fill="white"/>
<path d="M36.6777 14.4004H37.5994V15.322H36.6777V14.4004Z" fill="white"/>
<path d="M36.6777 16.2441H37.5994V17.1658H36.6777V16.2441Z" fill="white"/>
<path d="M37.5996 15.3223H38.5213V16.2439H37.5996V15.3223Z" fill="white"/>
<path d="M35.7559 15.3223H36.6775V16.2439H35.7559V15.3223Z" fill="white"/>
<path d="M32.9902 11.6357H33.9119V12.5574H32.9902V11.6357Z" fill="white"/>
<path d="M32.9902 13.4785H33.9119V14.4002H32.9902V13.4785Z" fill="white"/>
<path d="M33.9141 12.5571H34.8357V13.4788H33.9141V12.5571Z" fill="white"/>
<path d="M32.0684 12.5571H32.99V13.4788H32.0684V12.5571Z" fill="white"/>
<path d="M14.0977 18.5479H15.0193V19.4695H14.0977V18.5479Z" fill="white"/>
<path d="M14.0977 20.3916H15.0193V21.3133H14.0977V20.3916Z" fill="white"/>
<path d="M13.1758 19.4697H14.0974V20.3914H13.1758V19.4697Z" fill="white"/>
<path d="M15.0195 19.4697H15.9412V20.3914H15.0195V19.4697Z" fill="white"/>
<path d="M11.793 23.6172H12.7146V24.5388H11.793V23.6172Z" fill="white"/>
<path d="M11.793 25.4604H12.7146V26.3821H11.793V25.4604Z" fill="white"/>
<path d="M10.8711 24.5386H11.7928V25.4602H10.8711V24.5386Z" fill="white"/>
<path d="M12.7148 24.5386H13.6365V25.4602H12.7148V24.5386Z" fill="white"/>
<path d="M15.4805 25.9209H16.4021V26.8426H15.4805V25.9209Z" fill="white"/>
<path d="M15.4805 27.7646H16.4021V28.6863H15.4805V27.7646Z" fill="white"/>
<path d="M14.5586 26.8428H15.4803V27.7644H14.5586V26.8428Z" fill="white"/>
<path d="M16.4023 26.8428H17.324V27.7644H16.4023V26.8428Z" fill="white"/>
<path d="M12.7148 14.4004H13.6365V15.322H12.7148V14.4004Z" fill="white"/>
<path d="M12.7148 16.2437H13.6365V17.1653H12.7148V16.2437Z" fill="white"/>
<path d="M11.793 15.3223H12.7146V16.2439H11.793V15.3223Z" fill="white"/>
<path d="M13.6367 15.3223H14.5584V16.2439H13.6367V15.3223Z" fill="white"/>
<path d="M16.4023 11.6357H17.324V12.5574H16.4023V11.6357Z" fill="white"/>
<path d="M16.4023 13.4785H17.324V14.4002H16.4023V13.4785Z" fill="white"/>
<path d="M15.4805 12.5571H16.4021V13.4788H15.4805V12.5571Z" fill="white"/>
<path d="M17.3223 12.5571H18.2439V13.4788H17.3223V12.5571Z" fill="white"/>
<path d="M30.2266 30.9902H31.1482V31.9119H30.2266V30.9902Z" fill="white"/>
<path d="M26.541 30.9902H27.4627V31.9119H26.541V30.9902Z" fill="white"/>
<path d="M28.3828 30.9902H29.3045V31.9119H28.3828V30.9902Z" fill="white"/>
<path d="M31.1484 35.5986H32.0701V36.5203H31.1484V35.5986Z" fill="white"/>
<path d="M34.834 35.5986H35.7556V36.5202H34.834V35.5986Z" fill="white"/>
<path d="M32.9902 35.5986H33.9119V36.5203H32.9902V35.5986Z" fill="white"/>
<defs>
<linearGradient id="paint0_linear_1532_139095" x1="0" y1="25" x2="50" y2="25" gradientUnits="userSpaceOnUse">
<stop stop-color="#1D3566"/>
<stop offset="1" stop-color="#0D40A9"/>
</linearGradient>
</defs>
</svg>
