<svg width="82" height="82" viewBox="0 0 82 82" fill="none" xmlns="http://www.w3.org/2000/svg">
<g filter="url(#filter0_d_1532_139060)">
<circle cx="41" cy="40" r="35" fill="white"/>
</g>
<path d="M55.1432 27.5342H50.0367C49.9344 27.5342 49.8363 27.5751 49.764 27.648C49.6917 27.7209 49.651 27.8198 49.651 27.9228C49.651 27.9891 49.6718 28.0483 49.7003 28.1024V31.0635C49.7004 31.172 49.6793 31.2795 49.6382 31.3798C49.597 31.48 49.5366 31.5712 49.4605 31.6479C49.3844 31.7246 49.294 31.7855 49.1945 31.827C49.095 31.8684 48.9883 31.8897 48.8807 31.8896H47.2915C47.1915 31.8896 47.0926 31.8698 47.0003 31.8312C46.908 31.7927 46.8241 31.7362 46.7534 31.665C46.6828 31.5938 46.6267 31.5093 46.5885 31.4162C46.5503 31.3232 46.5306 31.2235 46.5306 31.1227V28.1503C46.5816 28.0854 46.6101 28.0056 46.6119 27.9228C46.612 27.8718 46.6021 27.8212 46.5827 27.774C46.5634 27.7268 46.535 27.6839 46.4992 27.6478C46.4633 27.6116 46.4208 27.583 46.3739 27.5635C46.3271 27.544 46.2769 27.5341 46.2262 27.5342H35.9328C35.8306 27.5342 35.7325 27.5751 35.6602 27.648C35.5879 27.7209 35.5472 27.8198 35.5472 27.9228C35.5472 27.983 35.5637 28.0379 35.5879 28.0893V31.0844C35.5879 31.1903 35.5672 31.2951 35.527 31.3929C35.4868 31.4907 35.4279 31.5795 35.3536 31.6544C35.2793 31.7292 35.1912 31.7886 35.0941 31.8291C34.9971 31.8696 34.8931 31.8905 34.7881 31.8905H33.377C33.1628 31.8905 32.9574 31.8047 32.806 31.6521C32.6545 31.4994 32.5694 31.2924 32.5694 31.0766V28.1111C32.6038 28.0543 32.6226 27.9893 32.6239 27.9228C32.624 27.8718 32.6141 27.8212 32.5948 27.774C32.5755 27.7268 32.5471 27.6839 32.5112 27.6478C32.4754 27.6116 32.4328 27.583 32.386 27.5635C32.3392 27.544 32.289 27.5341 32.2383 27.5342H26.8577C26.6305 27.5344 26.4126 27.6254 26.2518 27.7873C26.091 27.9492 26.0005 28.1687 26 28.3978V54.1347C26 54.6123 26.3848 55 26.8577 55H55.1432C55.3706 54.9996 55.5885 54.9082 55.7491 54.746C55.9098 54.5837 56 54.3639 56 54.1347V28.3978C55.9995 28.1689 55.9091 27.9495 55.7485 27.7876C55.5879 27.6258 55.3703 27.5346 55.1432 27.5342ZM55.1432 54.2227H26.8577C26.8463 54.2227 26.835 54.2204 26.8244 54.216C26.8139 54.2116 26.8043 54.2051 26.7963 54.1969C26.7882 54.1887 26.7819 54.179 26.7776 54.1683C26.7733 54.1577 26.7711 54.1462 26.7712 54.1347V34.7253H55.2288V54.1338C55.229 54.1454 55.2269 54.1568 55.2228 54.1675C55.2186 54.1782 55.2123 54.188 55.2043 54.1963C55.1964 54.2045 55.1869 54.2111 55.1764 54.2157C55.1659 54.2202 55.1546 54.2226 55.1432 54.2227Z" fill="#1D3566"/>
<path d="M34.1825 31.0042C34.3952 31.0042 34.5681 30.8299 34.5681 30.6155V25.3887C34.5681 25.3376 34.5581 25.2871 34.5388 25.2399C34.5194 25.1928 34.491 25.1499 34.4552 25.1138C34.4194 25.0777 34.3769 25.0491 34.3301 25.0296C34.2833 25.0101 34.2331 25 34.1825 25C34.1319 25 34.0817 25.0101 34.0349 25.0296C33.9881 25.0491 33.9456 25.0777 33.9098 25.1138C33.874 25.1499 33.8456 25.1928 33.8262 25.2399C33.8068 25.2871 33.7969 25.3376 33.7969 25.3887V30.6164C33.7969 30.8308 33.9698 31.0042 34.1825 31.0042Z" fill="#1D3566"/>
<path d="M48.1493 31.0042C48.362 31.0042 48.5349 30.8299 48.5349 30.6155V25.3887C48.5349 25.2856 48.4943 25.1867 48.422 25.1138C48.3497 25.0409 48.2516 25 48.1493 25C48.047 25 47.9489 25.0409 47.8766 25.1138C47.8043 25.1867 47.7637 25.2856 47.7637 25.3887V30.6164C47.7637 30.8308 47.9357 31.0042 48.1493 31.0042Z" fill="#1D3566"/>
<path d="M32.1897 40.6048C33.3635 40.6048 34.315 39.6458 34.315 38.4628C34.315 37.2798 33.3635 36.3208 32.1897 36.3208C31.016 36.3208 30.0645 37.2798 30.0645 38.4628C30.0645 39.6458 31.016 40.6048 32.1897 40.6048Z" fill="#1D3566"/>
<path d="M38.2971 40.6048C39.4709 40.6048 40.4224 39.6458 40.4224 38.4628C40.4224 37.2798 39.4709 36.3208 38.2971 36.3208C37.1234 36.3208 36.1719 37.2798 36.1719 38.4628C36.1719 39.6458 37.1234 40.6048 38.2971 40.6048Z" fill="#1D3566"/>
<path d="M44.4046 40.6048C45.5783 40.6048 46.5298 39.6458 46.5298 38.4628C46.5298 37.2798 45.5783 36.3208 44.4046 36.3208C43.2308 36.3208 42.2793 37.2798 42.2793 38.4628C42.2793 39.6458 43.2308 40.6048 44.4046 40.6048Z" fill="#1D3566"/>
<path d="M32.1897 46.5701C33.3635 46.5701 34.315 45.6111 34.315 44.4281C34.315 43.2451 33.3635 42.2861 32.1897 42.2861C31.016 42.2861 30.0645 43.2451 30.0645 44.4281C30.0645 45.6111 31.016 46.5701 32.1897 46.5701Z" fill="#1D3566"/>
<path d="M38.2971 46.5701C39.4709 46.5701 40.4224 45.6111 40.4224 44.4281C40.4224 43.2451 39.4709 42.2861 38.2971 42.2861C37.1234 42.2861 36.1719 43.2451 36.1719 44.4281C36.1719 45.6111 37.1234 46.5701 38.2971 46.5701Z" fill="#1D3566"/>
<path d="M44.4046 46.5701C45.5783 46.5701 46.5298 45.6111 46.5298 44.4281C46.5298 43.2451 45.5783 42.2861 44.4046 42.2861C43.2308 42.2861 42.2793 43.2451 42.2793 44.4281C42.2793 45.6111 43.2308 46.5701 44.4046 46.5701Z" fill="#1D3566"/>
<path d="M32.1897 52.5345C33.3635 52.5345 34.315 51.5755 34.315 50.3925C34.315 49.2095 33.3635 48.2505 32.1897 48.2505C31.016 48.2505 30.0645 49.2095 30.0645 50.3925C30.0645 51.5755 31.016 52.5345 32.1897 52.5345Z" fill="#1D3566"/>
<path d="M38.2971 52.5345C39.4709 52.5345 40.4224 51.5755 40.4224 50.3925C40.4224 49.2095 39.4709 48.2505 38.2971 48.2505C37.1234 48.2505 36.1719 49.2095 36.1719 50.3925C36.1719 51.5755 37.1234 52.5345 38.2971 52.5345Z" fill="#1D3566"/>
<path d="M44.4046 52.5345C45.5783 52.5345 46.5298 51.5755 46.5298 50.3925C46.5298 49.2095 45.5783 48.2505 44.4046 48.2505C43.2308 48.2505 42.2793 49.2095 42.2793 50.3925C42.2793 51.5755 43.2308 52.5345 44.4046 52.5345Z" fill="#1D3566"/>
<path d="M50.3694 40.6048C51.5431 40.6048 52.4947 39.6458 52.4947 38.4628C52.4947 37.2798 51.5431 36.3208 50.3694 36.3208C49.1957 36.3208 48.2441 37.2798 48.2441 38.4628C48.2441 39.6458 49.1957 40.6048 50.3694 40.6048Z" fill="#1D3566"/>
<path d="M50.3694 46.5701C51.5431 46.5701 52.4947 45.6111 52.4947 44.4281C52.4947 43.2451 51.5431 42.2861 50.3694 42.2861C49.1957 42.2861 48.2441 43.2451 48.2441 44.4281C48.2441 45.6111 49.1957 46.5701 50.3694 46.5701Z" fill="#1D3566"/>
<path d="M50.3694 52.5345C51.5431 52.5345 52.4947 51.5755 52.4947 50.3925C52.4947 49.2095 51.5431 48.2505 50.3694 48.2505C49.1957 48.2505 48.2441 49.2095 48.2441 50.3925C48.2441 51.5755 49.1957 52.5345 50.3694 52.5345Z" fill="#1D3566"/>
<defs>
<filter id="filter0_d_1532_139060" x="0" y="0" width="82" height="82" filterUnits="userSpaceOnUse" color-interpolation-filters="sRGB">
<feFlood flood-opacity="0" result="BackgroundImageFix"/>
<feColorMatrix in="SourceAlpha" type="matrix" values="0 0 0 0 0 0 0 0 0 0 0 0 0 0 0 0 0 0 127 0" result="hardAlpha"/>
<feMorphology radius="2" operator="dilate" in="SourceAlpha" result="effect1_dropShadow_1532_139060"/>
<feOffset dy="1"/>
<feGaussianBlur stdDeviation="2"/>
<feColorMatrix type="matrix" values="0 0 0 0 0.658333 0 0 0 0 0.658333 0 0 0 0 0.658333 0 0 0 0.25 0"/>
<feBlend mode="normal" in2="BackgroundImageFix" result="effect1_dropShadow_1532_139060"/>
<feBlend mode="normal" in="SourceGraphic" in2="effect1_dropShadow_1532_139060" result="shape"/>
</filter>
</defs>
</svg>
