<svg width="82" height="82" viewBox="0 0 82 82" fill="none" xmlns="http://www.w3.org/2000/svg">
<g filter="url(#filter0_d_1532_139009)">
<circle cx="41" cy="40" r="35" fill="white"/>
</g>
<path d="M50.2836 40.2442C50.1016 40.0015 49.7573 39.9523 49.5145 40.1343C49.3979 40.2218 49.3208 40.352 49.3003 40.4964L48.9954 42.6334C48.988 42.6608 48.9784 42.6876 48.9668 42.7136C49.5271 41.9696 49.9793 41.15 50.31 40.2794L50.2836 40.2442Z" fill="#1D3566"/>
<path d="M48.4508 43.1045C48.4249 43.1045 48.399 43.1029 48.3733 43.0996L45.1101 42.6332C44.8097 42.5901 44.6012 42.3118 44.6442 42.0114C44.6442 42.0114 44.6442 42.0114 44.6442 42.0113L44.9491 39.8743C44.9916 39.5738 44.7826 39.2959 44.4822 39.2533C44.3385 39.233 44.1925 39.2704 44.0762 39.3573L42.349 40.6522C42.1063 40.8342 41.7619 40.785 41.5799 40.5423L39.6022 37.9053C39.4201 37.6626 39.4693 37.3183 39.7121 37.1362L41.4387 35.8414C41.6815 35.6593 41.7306 35.315 41.5486 35.0723C41.4611 34.9557 41.3309 34.8786 41.1866 34.858L39.0495 34.5526C38.7492 34.5099 38.5403 34.2317 38.5831 33.9313C38.5831 33.9311 38.5831 33.9309 38.5831 33.9307L39.0495 30.668C39.0922 30.3677 39.3704 30.1588 39.6708 30.2015C39.671 30.2015 39.6712 30.2016 39.6714 30.2016L41.8084 30.5071C42.0282 30.5389 42.2455 30.4344 42.3578 30.2428C42.4745 30.0524 42.4613 29.8097 42.3248 29.633L41.0311 27.9069C40.849 27.6642 40.8982 27.3199 41.141 27.1378L41.4524 26.9043C40.9479 26.88 40.4421 26.8935 39.9395 26.945C34.5134 27.5645 30.6171 32.4655 31.2366 37.8915C31.5741 40.8475 33.2246 43.4943 35.7303 45.0982C36.6451 45.6654 37.207 46.6604 37.2201 47.7368V49.9567C37.2201 50.867 37.958 51.6048 38.8682 51.6048H43.2631C44.1734 51.6048 44.9112 50.867 44.9112 49.9567V47.7824C44.9252 46.6807 45.4986 45.6619 46.433 45.0784C47.299 44.5165 48.0725 43.8234 48.7255 43.0238C48.6426 43.0745 48.5479 43.1024 48.4508 43.1045ZM41.6151 49.9567H40.5163V48.3086H41.6151V49.9567ZM40.5163 47.2099C40.516 45.7574 39.6203 44.4554 38.2639 43.9357C34.3079 42.3888 32.3549 37.9279 33.9018 33.9719C34.5007 32.4401 35.575 31.1406 36.9669 30.2642L37.5498 31.1938C34.4682 33.1328 33.542 37.2028 35.4811 40.2844C36.2323 41.4783 37.3468 42.3998 38.6606 42.9133C40.4411 43.5943 41.6164 45.3036 41.6151 47.2099H40.5163Z" fill="#1D3566"/>
<path d="M38.8672 54.3516V54.9009C38.8672 55.5078 39.3591 55.9997 39.9659 55.9997H42.1634C42.7702 55.9997 43.2621 55.5078 43.2621 54.9009V54.3516H38.8672Z" fill="#1D3566"/>
<path d="M35.4322 45.5619C35.1067 45.3509 34.7933 45.1218 34.4934 44.8758C33.6641 46.4902 31.683 47.1266 30.0686 46.2974C28.9697 45.7329 28.2803 44.5998 28.2839 43.3645C28.2865 41.7035 29.5234 40.3035 31.1714 40.0963C30.9698 39.4899 30.8241 38.8663 30.7363 38.2334L30.6401 38.6905C30.5153 39.2843 29.9326 39.6644 29.3388 39.5396C29.1966 39.5097 29.0618 39.4519 28.9421 39.3695L27.7994 38.585L26.7984 39.5837L27.5851 40.7275C27.9295 41.2272 27.8035 41.9114 27.3039 42.2557C27.184 42.3382 27.049 42.3962 26.9067 42.4261L25.5371 42.7146V44.0198L26.9067 44.3083C27.5005 44.4333 27.8805 45.016 27.7554 45.6098C27.7254 45.7524 27.6673 45.8875 27.5846 46.0074L26.7984 47.1452L27.7994 48.1439L28.941 47.3572C29.4406 47.0129 30.1248 47.1389 30.4692 47.6385C30.5517 47.7583 30.6097 47.8933 30.6396 48.0357L30.9275 49.4075H32.2333L32.5212 48.0379C32.6461 47.4441 33.2288 47.064 33.8226 47.189C33.965 47.2189 34.1 47.2769 34.2198 47.3594L35.3608 48.1439L36.5392 46.9655C36.3416 46.3849 35.9509 45.8894 35.4322 45.5619Z" fill="#1D3566"/>
<path d="M43.2621 52.1543H38.8672V53.253H43.2621V52.1543Z" fill="#1D3566"/>
<path d="M54.7816 33.4709C53.8806 33.3421 53.2546 32.5071 53.3834 31.6061C53.4453 31.1734 53.6765 30.783 54.0263 30.5208L55.3134 29.5551L53.9949 27.7971L52.7078 28.7623C51.9797 29.3087 50.9467 29.1613 50.4004 28.4333C50.1384 28.0842 50.0256 27.6453 50.0868 27.2131L50.3142 25.62L48.1393 25.3096L47.9118 26.9027C47.7829 27.8038 46.948 28.4298 46.047 28.3009C45.6143 28.2391 45.2239 28.0078 44.9618 27.6581L43.996 26.3687L42.238 27.6872L43.2032 28.9744C43.7494 29.7025 43.602 30.7355 42.8739 31.2818C42.524 31.5442 42.0843 31.6569 41.6513 31.5948L40.0581 31.3674L39.7461 33.5429L41.3393 33.7703C42.2403 33.8992 42.8663 34.7341 42.7375 35.6351C42.6756 36.0678 42.4444 36.4582 42.0946 36.7204L40.808 37.6862L42.1265 39.4442L43.4136 38.4789C44.1418 37.9327 45.1748 38.0802 45.721 38.8083C45.9835 39.1581 46.0961 39.598 46.0341 40.0309L45.8067 41.624L47.9866 41.9361L48.214 40.3429C48.3429 39.4419 49.1778 38.8159 50.0788 38.9447C50.5115 39.0066 50.9019 39.2378 51.1641 39.5875L52.1299 40.8742L53.8878 39.5557L52.9193 38.2663C52.3733 37.5381 52.521 36.5051 53.2493 35.9591C53.5984 35.6973 54.037 35.5847 54.469 35.6459L56.0622 35.8733L56.3726 33.6984L54.7816 33.4709ZM48.0613 36.9171C46.2408 36.9171 44.7651 35.4414 44.7651 33.6209C44.7651 31.8004 46.2408 30.3247 48.0613 30.3247C49.8817 30.3247 51.3575 31.8004 51.3575 33.6209C51.3553 35.4405 49.8808 36.915 48.0613 36.9171Z" fill="#1D3566"/>
<path d="M55.3475 44.4634H51.502V45.5621H55.3475V44.4634Z" fill="#1D3566"/>
<path d="M51.3049 47.337L50.6016 48.1812L53.898 50.9275L54.6013 50.0834L51.3049 47.337Z" fill="#1D3566"/>
<path d="M49.3058 48.8579H48.207V52.7035H49.3058V48.8579Z" fill="#1D3566"/>
<path d="M29.3946 32.3934L25 33.4919L25.2663 34.5573L29.6609 33.4587L29.3946 32.3934Z" fill="#1D3566"/>
<path d="M26.5504 26.9868L25.9121 27.8804L29.7574 30.6269L30.3956 29.7333L26.5504 26.9868Z" fill="#1D3566"/>
<path d="M31.6836 23.9999L30.6191 24.2721L31.7427 28.6667L32.8072 28.3945L31.6836 23.9999Z" fill="#1D3566"/>
<defs>
<filter id="filter0_d_1532_139009" x="0" y="0" width="82" height="82" filterUnits="userSpaceOnUse" color-interpolation-filters="sRGB">
<feFlood flood-opacity="0" result="BackgroundImageFix"/>
<feColorMatrix in="SourceAlpha" type="matrix" values="0 0 0 0 0 0 0 0 0 0 0 0 0 0 0 0 0 0 127 0" result="hardAlpha"/>
<feMorphology radius="2" operator="dilate" in="SourceAlpha" result="effect1_dropShadow_1532_139009"/>
<feOffset dy="1"/>
<feGaussianBlur stdDeviation="2"/>
<feColorMatrix type="matrix" values="0 0 0 0 0.658333 0 0 0 0 0.658333 0 0 0 0 0.658333 0 0 0 0.25 0"/>
<feBlend mode="normal" in2="BackgroundImageFix" result="effect1_dropShadow_1532_139009"/>
<feBlend mode="normal" in="SourceGraphic" in2="effect1_dropShadow_1532_139009" result="shape"/>
</filter>
</defs>
</svg>
